# xmcd
#
# Track frame offsets:
#	150
#	13008
#	23795
#	34720
#	46392
#	62363
#	78173
#	95391
#	111072
#	123723
#
# Disc length: 1815 seconds
#
# Revision: 1
# Processed by: cddbd v1.5.2PL0 Copyright (c) Steve Scherf et al.
# Submitted via: audiograbber 1.83.01
#
DISCID=7207150a
DTITLE=Walter Jackson - It's An Uphill Climb (To The Bottom) [Collectables]
DYEAR=2004
DGENRE=R&B
TTITLE0=It's An Uphill Climb (To The Bottom)
TTITLE1=That's What Mama Say
TTITLE2=Tear For Tear
TTITLE3=There Goes That Song Again
TTITLE4=Moonlight In Vermont
TTITLE5=A Blossom Fell
TTITLE6=Not You
TTITLE7=Let It Be Me
TTITLE8=She's A Woman
TTITLE9=Opportunity
EXTD=
EXTT0=
EXTT1=
EXTT2=
EXTT3=
EXTT4=
EXTT5=
EXTT6=
EXTT7=
EXTT8=
EXTT9=
PLAYORDER=
